name new_emg_signals
nRows=83
nColumns=7
 
endheader
time	RGLTMED	RRF	RADDLONG	RBF	RTA	RGM
3.3899999999999277	0.7355039856748524	0.625851051923913	0.9547017663141832	0.8841115127777397	0.6644025813558089	0.8790448735135
3.3999999999999275	0.7340042114734299	0.6278384965189977	0.9582213943035778	0.8818204600705669	0.6662472433233261	0.8802448464129909
3.409999999999929	0.7325707555501975	0.6298807803945862	0.9615749185278604	0.8795583998632852	0.6680771984049679	0.8814809906110357
3.419999999999929	0.7312041433713424	0.6319738760338022	0.9647639315940162	0.8773254260529687	0.6698903354389895	0.8827535393339184
3.4299999999999287	0.7299047630193184	0.6341137612298416	0.9677902722705254	0.8751215148181352	0.6716845706557728	0.8840626326299862
3.4399999999999267	0.7286728645620953	0.6362964293245935	0.9706560197427646	0.8729465304117985	0.6734578523729774	0.8854083141019815
3.4499999999999265	0.7275085598598463	0.6385178991899291	0.9733634869657136	0.8708002313348361	0.6752081655788159	0.88679052802424
3.4599999999999262	0.7264118228090432	0.6407742249167261	0.9759152131542675	0.8686822768631497	0.6769335363991527	0.8882091168628112
3.469999999999926	0.7253824900228244	0.6430615051766284	0.9783139554611096	0.8665922338997973	0.6786320364470192	0.8896638192144143
3.479999999999926	0.7244202619453521	0.6453758922210818	0.980562679896854	0.8645295841219881	0.6803017870542113	0.8911542681779606
3.489999999999924	0.7235247043966357	0.6477136004817511	0.9826645515486808	0.8624937313903008	0.681940963385016	0.8926799901703666
3.4999999999999236	0.7226952505430925	0.6500709147357444	0.9846229241548068	0.8604840093865259	0.6835477984327737	0.8942404041961399
3.5099999999999234	0.7219312032879132	0.6524441977994615	0.986441329094192	0.8584996894444791	0.6851205869003602	0.895834821577989
3.519999999999925	0.7212317380745474	0.6548298977167155	0.9881234638531816	0.8565399885370641	0.6866576889651469	0.8974624461533286
3.5299999999999248	0.7205959060963737	0.6572245544118636	0.9896731800321646	0.8546040773807851	0.6881575339273627	0.8991223749392477
3.5399999999999245	0.7200226379056496	0.6596248057875073	0.9910944709559744	0.8526910886172293	0.6896186237387467	0.9008135992668316
3.5499999999999243	0.719510747414393	0.6620273932574262	0.9923914589526164	0.8508001250293961	0.6910395364067305	0.9025350063837604
3.559999999999924	0.7190589362786817	0.6644291667160386	0.9935683823656378	0.8489302677488707	0.6924189292683588	0.9042853815228488
3.569999999999924	0.7186657986559573	0.666827088952442	0.9946295823658956	0.8470805844084339	0.6937555421279666	0.906063410431974
3.5799999999999237	0.7183298263228213	0.6692182395205482	0.9955794896277536	0.8452501371934377	0.6950482002529683	0.9078676823587456
3.5899999999999235	0.718049414138546	0.6715998180785611	0.9964226109334908	0.8434379907455374	0.696295817222619	0.9096966934804552
3.599999999999925	0.7178228658373089	0.6739691472125913	0.9971635157678358	0.8416432198743972	0.6974973976248535	0.9115488507673196
3.609999999999925	0.71764840012972	0.6763236747603668	0.9978068229620296	0.8398649170361089	0.6986520395961022	0.913422476263839
3.6199999999999246	0.7175241570917041	0.6786609756518756	0.9983571874437832	0.8381021995395067	0.6997589371982611	0.915315811770418
3.6299999999999226	0.7174482048162675	0.6809787532836998	0.9988192871461394	0.8363542164419006	0.7008173826260787	0.9172270239042736
3.6399999999999224	0.7174185463011671	0.6832748404436396	0.9991978101249582	0.834620155095636	0.7018267682370163	0.919154209516072
3.649999999999922	0.7174331265428915	0.6855471998015785	0.999497441931219	0.8328992473055589	0.7027865883944553	0.9210954014364188
3.659999999999922	0.7174898398048105	0.6877939239821697	0.9997228532808872	0.8311907750575634	0.7036964411137754	0.9230485745243796
3.6699999999999218	0.717586537024645	0.69001323523434	0.9998786880614338	0.8294940757786842	0.7045560294993949	0.9250116519889352
3.67999999999992	0.7177210333239054	0.6922034847116806	0.999969551710656	0.8278085470936282	0.7053651629590085	0.9269825119522684
3.6899999999999196	0.7178911155796186	0.6943631513768718	1.0	0.8261336510501555	0.7061237581793144	0.9289589942218864
3.6999999999999194	0.7180945500168595	0.6964908405419	0.999974528251208	0.8244689177958725	0.7068318398453258	0.9309389072358294
3.709999999999921	0.7183290897796606	0.6985852820541879	0.9998975610118328	0.822813948698336	0.7074895410834233	0.9329200351431078
3.7199999999999207	0.7185924824382536	0.7006453281369808	0.9997734422118082	0.8211684189056735	0.7080971036064702	0.9349001449804945
3.7299999999999205	0.7188824773915039	0.7026699508907057	0.9996064258201266	0.8195320793487529	0.7086548775374703	0.936876993906662
3.7399999999999203	0.7191968331246676	0.7046582394607482	0.9994006670174806	0.8179047581874415	0.7091633208864041	0.9388483364565894
3.74999999999992	0.7195333242837044	0.7066093968773515	0.9991602138975556	0.8162863617045656	0.7096229986528506	0.940811931782258
3.75999999999992	0.7198897485295341	0.7085227365753377	0.9988889997067166	0.8146768746508632	0.710034581525263	0.9427655508495916
3.7699999999999196	0.7202639331395622	0.710397678605804	0.9985908356288548	0.8130763600447526	0.7103988441470022	0.9447069835656828
3.7799999999999194	0.7206537413287676	0.7122337455587796	0.9982694041195724	0.811484958432841	0.7107166629206149	0.9466340458132092
3.789999999999921	0.7210570782677723	0.7140305582233795	0.9979282527919195	0.8099028866228881	0.7109890133261711	0.9485445863703432
3.7999999999999208	0.7214718967799743	0.7157878310182493	0.9975707888552334	0.8083304359086263	0.711216966736837	0.95043649369428
3.8099999999999206	0.7218962027041234	0.7175053672281312	0.9972002741089514	0.8067679698131411	0.7114016867248234	0.9523077025456032
3.8199999999999186	0.7223280599124675	0.7191830540829595	0.996819820494119	0.8052159213813828	0.7115444248630697	0.9541562004292145
3.8299999999999184	0.7227655949773927	0.7208208577148904	0.9964323862055492	0.8036747900541618	0.711646516041021	0.9559800338270428
3.839999999999918	0.7232070014816614	0.7224188180273903	0.9960407723668704	0.8021451381553076	0.7117093733246199	0.9577773141971908
3.849999999999918	0.7236505439692578	0.723977043508725	0.9956476202689188	0.8006275870234095	0.7117344823995941	0.9595462237144272
3.8599999999999177	0.7240945615351763	0.7254957060205756	0.99525540916997	0.799122812817439	0.7117233956427308	0.961285020727612
3.8699999999999157	0.7245374710525151	0.7269750355910777	0.9948664546546988	0.7976315420243736	0.7116777258692457	0.9629920449105744
3.8799999999999155	0.7249777700341686	0.7284153152405629	0.9944829075475592	0.7961545466954195	0.7115991398060212	0.9646657220834468
3.889999999999917	0.7254140391248004	0.7298168758678101	0.994106753375105	0.7946926394382794	0.7114893513406398	0.9663045686822564
3.899999999999917	0.7258449442175408	0.7311800912242309	0.993739812370419	0.7932466681941879	0.711350114595266	0.9679071958542508
3.9099999999999167	0.7262692381893209	0.7325053730025808	0.993383740011072	0.7918175108303581	0.7111832168729482	0.9694723131576618
3.9199999999999164	0.7266857622495172	0.7337931660653276	0.9930400280798742	0.7904060695798137	0.7109904715222355	0.9709987318469756
3.9299999999999162	0.727093446899461	0.7350439438358682	0.9927100062353909	0.7890132653620378	0.7107737107644427	0.9724853677281584
3.939999999999916	0.7274913125048948	0.736258203873599	0.9923948440774714	0.7876400320192755	0.7105347785264944	0.9739312435721612
3.949999999999916	0.727878469488619	0.7374364636519296	0.9920955536927296	0.7862873105050824	0.7102755233207997	0.9753354910777569
3.9599999999999156	0.7282541181543193	0.738579256556712	0.9918129926661068	0.7849560430616885	0.7099977912121793	0.976697352376776
3.9699999999999154	0.7286175481545846	0.7396871281215568	0.9915478675465978	0.7836471674225862	0.7097034189102228	0.9780161810774696
3.979999999999917	0.7289681376169318	0.7407606325155164	0.9913007377570464	0.7823616110753632	0.7093942270234	0.9792914428452324
3.9899999999999167	0.7293053519419914	0.7418003292973736	0.9910720199388346	0.7811002856193787	0.7090720135090819	0.9805227155244068
3.9999999999999165	0.7296287422881951	0.7428067804489191	0.9908619927222052	0.7798640812512353	0.7087385473512854	0.9817096888084672
4.0099999999999145	0.7299379437579143	0.743780547697742	0.990670801911865	0.778653861409934	0.708395562495534	0.9828521634674195
4.019999999999914	0.7302326733004572	0.744722190138023	0.9904984660759084	0.7774704576119406	0.7080447520679217	0.9839500501422228
4.029999999999914	0.7305127273478146	0.7456322621562396	0.9903448825242191	0.7763146645044675	0.7076877629031134	0.9850033677169732
4.039999999999914	0.7307779791989067	0.7465113116666472	0.9902098336601608	0.7751872351634844	0.7073261904039094	0.986012241281146
4.049999999999912	0.7310283761675863	0.7473598786594493	0.9900929936868312	0.7740888766605319	0.7069615737529067	0.9869768996966874
4.059999999999912	0.7312639365085313	0.7481784940618693	0.9899939356463912	0.773020245920022	0.7065953914949251	0.9878976727861024
4.0699999999999115	0.7314847461340299	0.7489676789102294	0.9899121387682904	0.7719819458860604	0.706229057506898	0.9887749881586884
4.079999999999913	0.7316909551339328	0.7497279438288502	0.9898469960994272	0.7709745220153842	0.7058639173698648	0.9896093676922604
4.089999999999913	0.731882774110847	0.7504597888098883	0.9897978223864976	0.7699984591105118	0.705501245155538	0.9904014236881736
4.099999999999913	0.7320604703429604	0.7511637032862163	0.9897638621780362	0.7690541785054034	0.7051422406374054	0.9911518547186704
4.109999999999912	0.7322243637873073	0.7518401664873143	0.9897442981109116	0.7681420356138675	0.7047880269338648	0.9918614411871576
4.119999999999912	0.732374822937735	0.7524896480655906	0.9897382593431476	0.7672623178491929	0.704439648588257	0.992531040623672
4.129999999999912	0.7325122605543932	0.7531126089780921	0.989744830091703	0.7664152429211917	0.7040980700880286	0.9931615827382312
4.139999999999912	0.7326371292859709	0.7537095026060915	0.9897630582306336	0.7656009575144299	0.7037641748226768	0.9937540642547196
4.1499999999999115	0.7327499172109534	0.7542807760927089	0.9897919639016972	0.7648195363490021	0.7034387644775535	0.9943095435486236
4.159999999999913	0.732851143327977	0.754826871876361	0.989830548086276	0.7640709816226364	0.7031225588581775	0.9948291351133552
4.169999999999913	0.732941353026906	0.7553482293954321	0.9898778010841532	0.76335522283045	0.7028161961372926	0.9953140038811932
4.179999999999911	0.7330211135717952	0.755845286937194	0.9899327108414367	0.7626721169564928	0.7025202335146016	0.9957653594256752
4.189999999999911	0.7330910096254395	0.7563184836017056	0.9899942710668516	0.7620214490292526	0.7022351482766149	0.9961844500723352
4.1999999999999105	0.7331516388436167	0.756768261349261	0.9900614890731034	0.7614029330322436	0.7019613392417329	0.9965725569451396
4.20999999999991	0.733203607565378	0.7571950670980254	0.9901333932780962	0.7608162131595385	0.7016991285731483	0.9969309879776908
